<?xml version="1.0" encoding="utf-8"?>
<!-- Generator: Adobe Illustrator 26.5.0, SVG Export Plug-In . SVG Version: 6.00 Build 0)  -->
<svg version="1.1" id="Capa_1" xmlns="http://www.w3.org/2000/svg" xmlns:xlink="http://www.w3.org/1999/xlink" x="0px" y="0px"
	 viewBox="0 0 763.8 450" style="enable-background:new 0 0 763.8 450;" xml:space="preserve">
<style type="text/css">
	.st0{fill:#872234;}
	.st1{opacity:0.29;}
	.st2{fill:#7D983F;}
	.st3{fill:#96A74B;}
	.st4{fill:#485621;}
	.st5{fill:#467445;}
	.st6{fill:#2E142D;}
	.st7{opacity:0.37;}
	.st8{fill:#A57C54;}
	.st9{fill:#A88C4E;}
	.st10{fill:#4F5B56;}
	.st11{fill:#D0A754;}
	.st12{fill:#69645C;}
	.st13{fill:#231024;}
	.st14{opacity:0.32;}
	.st15{fill:#898B8A;}
	.st16{fill:#2F4850;}
	.st17{fill:#A5784C;}
	.st18{fill:#635E55;}
	.st19{fill:#868887;}
	.st20{fill:#47544F;}
	.st21{fill:#A78947;}
	.st22{fill:#4F7781;}
	.st23{fill:#548593;}
	.st24{fill:#B5CCCF;}
	.st25{fill:#D3A64C;}
	.st26{fill:#B7936F;}
	.st27{fill:#335D42;}
	.st28{opacity:0.15;}
	.st29{fill:#567B85;}
	.st30{fill:#81A3A5;}
	.st31{fill:#E7FDFD;}
	.st32{fill:#D5EAEA;}
	.st33{fill:#C4D5D4;}
	.st34{fill:#55888F;}
	.st35{fill:#4E794D;}
	.st36{fill:#3B6348;}
	.st37{fill:#224F5E;}
	.st38{fill:#2B6779;}
	.st39{fill:#204853;}
</style>
<g id="Layer_2">
</g>
<g>
	<polygon class="st0" points="261.9,376.1 270.9,369.3 282.3,345.5 284.6,329.1 293.4,307.5 298.6,294.8 308.5,290.4 310.4,291.1 
		312.4,290.1 317,282.5 318.6,282.5 320.6,291.1 329.7,302.3 341.7,311.8 344.3,317.4 350.1,319.9 356.3,329.2 360.5,332.5 
		377.2,359.5 390.8,371.8 393.9,369.7 396.9,373.7 427.5,390.9 432.3,401.6 507.9,424.2 515.5,417.8 522.6,414.6 539.5,401.5 
		552.7,397.2 560.1,391.6 565.1,397.3 570.3,399.9 589.7,419.6 592.5,418.5 613.5,440.2 234.9,440.2 	"/>
	<g class="st1">
		<polygon class="st2" points="299.2,334 302.9,340.2 304.4,346.1 314,350.3 		"/>
		<polygon class="st3" points="489.8,436.4 478.6,429.8 460.1,428.2 439.3,419.1 436.5,420.7 418.1,406.8 399.6,386.8 396.6,387.7 
			374.8,370.5 352.1,356.1 349.5,362.5 337,375.6 331.8,403.2 333,407.4 339.7,416.6 338,418.3 361.4,429.7 367.1,435.4 376,440.2 
			501.3,440.2 494,436.4 		"/>
		<polygon class="st4" points="265.6,417.6 260.6,428.7 261.9,440.2 272.5,440.2 297,424.2 304.6,411 309.3,409.9 318,395.3 
			321.1,377.8 333.5,370.9 344.4,362.3 333.8,361.3 314,350.3 304.4,346.1 302.9,340.2 299.2,334 294.1,319.9 286.1,359.5 
			284.2,386.7 286,395.6 279.4,402.2 268.6,409 265.6,413.2 		"/>
		<polygon class="st5" points="507.9,424.2 534.6,433.1 546.4,433.1 551.7,440.2 595.7,440.2 589.8,432.6 586.9,433.1 577.5,416.1 
			562.6,402.8 560.1,391.6 552.7,397.2 539.5,401.5 522.6,414.6 515.5,417.8 		"/>
		<polygon class="st5" points="333.5,370.9 321.1,377.8 318,395.3 309.3,409.9 304.6,411 297,424.2 272.5,440.2 376,440.2 
			367.1,435.4 361.4,429.7 338,418.3 339.7,416.6 333,407.4 331.8,403.2 337,375.6 349.5,362.5 352.1,356.1 350.1,356.1 
			348.1,359.4 344.4,362.3 		"/>
		<polygon class="st5" points="310.6,337.8 309.7,333.1 308.4,324.8 304.9,314.4 304.9,310.9 313.1,302.4 312.5,299.5 316.8,286.6 
			318.6,282.5 317,282.5 312.4,290.1 310.4,291.1 308.5,290.4 298.6,294.8 293.4,307.5 295.4,310.1 294.1,319.9 299.2,334 
			314,350.3 333.8,361.3 327.5,351.6 		"/>
		<polygon class="st5" points="293.4,307.5 284.6,329.1 282.3,345.5 270.9,369.3 261.9,376.1 234.9,440.2 261.9,440.2 260.6,428.7 
			265.6,417.6 265.6,413.2 268.6,409 279.4,402.2 286,395.6 284.2,386.7 286.1,359.5 294.1,319.9 295.4,310.1 		"/>
		<polygon class="st2" points="560.1,391.6 562.6,402.8 577.5,416.1 586.9,433.1 589.8,432.6 595.7,440.2 613.5,440.2 592.5,418.5 
			589.7,419.6 570.3,399.9 565.1,397.3 		"/>
		<polygon class="st2" points="316.8,286.6 312.5,299.5 313.1,302.4 304.9,310.9 304.9,314.4 308.4,324.8 309.7,333.1 310.6,337.8 
			327.5,351.6 333.8,361.3 344.4,362.3 348.1,359.4 350.1,356.1 352.1,356.1 374.8,370.5 396.6,387.7 399.6,386.8 418.1,406.8 
			436.5,420.7 439.3,419.1 460.1,428.2 478.6,429.8 489.8,436.4 494,436.4 501.3,440.2 551.7,440.2 546.4,433.1 534.6,433.1 
			507.9,424.2 432.3,401.6 427.5,390.9 396.9,373.7 393.9,369.7 390.8,371.8 377.2,359.5 360.5,332.5 356.3,329.2 350.1,319.9 
			344.3,317.4 341.7,311.8 329.7,302.3 320.6,291.1 318.6,282.5 		"/>
	</g>
</g>
<g>
	<path class="st6" d="M518,355.3l9.5-6.2l11.9-21.5l2.4-14.9l9.2-19.6l5.4-11.5l10.4-4l2,0.7l2.1-1l4.9-6.8h1.6l2.1,7.8l9.5,10.1
		l12.6,8.6l0.7,1.3l8.1-1.8l7.6-16.4l19.3-24.1l15.5-27.5l1-14.8c0,0,4.2-11.3,4.6-11.6c0.4-0.4,0-6.4,0-6.4l5.6-10.2h19l7.9,17.8
		l5.3,2.6l3.6,9.3l29.7,48.6l2,0.2l6.7,0.7l5.5-14.3l5.2-9.3l3.1-5.6h9.8l2.2,7.1l0.5,0.7l2.5,3.4l6.6,23.5l20,35.9l7.7,4.8
		l15.2,19.6l12.8,20.2l21.6,23.6l1.3,4.2h4.2l4.6,5.9l10.5,15.8l14.3,12.8H489.8L518,355.3z"/>
	<g class="st7">
		<g>
			<polygon class="st8" points="690.3,220.6 690.3,225.5 692.2,234.5 700.6,250.4 700.6,256.4 701.4,263.1 710.3,292.3 712.2,293.4 
				713.1,284.8 713.8,270.5 712.7,256 706.7,242.5 706.8,242.5 			"/>
			<polygon class="st8" points="719.7,272.7 716.3,302.1 717,304.5 719.5,298.7 725.7,294.7 727.4,281.6 730.6,275.7 731.5,264.2 
				729.5,264 718.4,259.2 			"/>
			<polygon class="st9" points="749.8,293 739.5,315.9 744.6,318.4 748.1,315.9 748.1,318.9 750.6,317.7 751.6,320.2 754.3,322 
				756.3,320.7 748.2,307.5 			"/>
			<polygon class="st10" points="694,367 681.9,413.3 837.4,413.3 816.9,382.9 807,359.3 797.7,334.2 790.7,332.7 774.8,315.1 
				771.1,299.5 766.1,314.7 764,321 753.7,330.7 750,338.6 745.1,338.6 725.3,353.4 723.3,363.1 713.2,370.6 705.3,365.3 			"/>
			<path class="st9" d="M669.3,227.3l-5.5,5.4l-5.8,10.7v0l0.2,5.4c0,0-0.1,11.9,3.5,25.9c3.6,14,16.3,36.3,16.3,36.3l10.1,11
				l-2.3-10.5v-15.4l4.3,0.3l2.3-2.4l3.5,4.6l5.5-35.5l-0.8-6.7v-6.1l-8.5-15.9l-1.9-9v-4.9l-3,1.3l-2.4,0.9l-2.4,0.9l-0.9-1.9
				l-4.7,1.3l-1-2.5l-5.8,2.8L669.3,227.3z"/>
			<path class="st8" d="M653.4,259.3l-7.5,9.8l-5.8,2.1l-1.3,8.5l-9.1,6.2l-3.7,12.6l-9.7,1.1l-5.9-2.8l-12.7,2.8l-53.1,113.8H636
				l5.2-72.7l-2.4-20.2l9.1,13.4l4,2.7l5-6.9l2,2.9c0,0,1.4-14.4,1.4-18.8c0-4.4-3.4-52.3-3.4-52.3l1.1-17.8l-1.5,2.8L653.4,259.3z"
				/>
			<polygon class="st9" points="706.7,242.5 712.7,256 713.8,270.5 713.1,284.8 712.2,293.4 713.6,294.3 716.3,302.1 719.7,272.7 
				718.4,259.2 713.1,250.9 706.8,242.5 			"/>
			<polygon class="st9" points="738.2,264.9 731.5,264.2 730.6,275.7 727.4,281.6 725.7,294.7 728.4,293 730.3,297.5 731.8,296.9 
				737.2,310.1 735.3,291.1 740.5,268.1 744.4,261.3 748.8,241.3 743.7,250.6 			"/>
			<polygon class="st11" points="761.7,235.7 761.7,249.7 765.1,261.3 764.4,243.4 763.9,242.8 			"/>
			<path class="st12" d="M737.2,310.1l2.3,5.7l10.3-22.9l1.3-12c0,0-0.4-19.3,0-19.7s0-6.3,0-6.3l3-5.4v-13.9h-2.1l-3.1,5.6l-4.4,20
				l-4,6.8l-5.2,23L737.2,310.1z"/>
			<polygon class="st11" points="684.6,219.4 685,222.8 687.3,222 690.3,220.6 706.8,242.5 713.1,250.9 718.4,259.2 729.5,264 
				699.8,215.4 696.1,206.1 690.8,203.5 682.9,185.6 681.8,197.4 682.9,218.9 			"/>
			<path class="st12" d="M617.9,280.3l-7.6,16.4l5.9,2.8l9.7-1.1l3.7-12.6l9.1-6.2l1.3-8.5l5.8-2.1l7.5-9.8l3-13l1.5-2.8v0l5.8-10.7
				l5.5-5.4l0.9-4l0.7-3.2l-2.1-2.7l0.6-1.5l-3.3-5.6l2.1-7.7l-0.7-12.7l-3.5-4.2l-5.6,10.2c0,0,0.4,6,0,6.4
				c-0.4,0.4-4.6,11.6-4.6,11.6l-1,14.8l-15.5,27.5L617.9,280.3z"/>
			<polygon class="st11" points="764.4,243.4 765.1,261.3 766.5,266 771.1,299.5 774.8,315.1 790.7,332.7 797.7,334.2 807,359.3 
				816.9,382.9 837.4,413.3 879.9,413.3 860.9,384.6 856.3,378.7 852.1,378.7 850.8,374.5 829.2,351 816.5,330.7 801.3,311.1 
				793.5,306.3 773.5,270.4 766.9,246.8 			"/>
			<path class="st12" d="M657.9,243.5l-1.1,17.8c0,0,3.4,47.9,3.4,52.3c0,4.4-1.4,18.8-1.4,18.8l-2-2.9l-5,6.9l-4-2.7l-9.1-13.4
				l2.4,20.2l-5.2,72.7h45.9L694,367l11.2-1.8l7.9,5.3l10.1-7.5l2-9.7l19.8-14.7h4.8l3.7-7.9L764,321l2.1-6.3l-6,3.5l-3.7,2.4
				l-2.1,1.3l-2.7-1.9l-1-2.4l-2.5,1.2v-3.1l-3.5,2.5l-5.1-2.5l-2.3-5.7l-5.4-13.2l-1.5,0.6l-1.9-4.5l-2.7,1.7l-6.3,4l-2.4,5.8
				l-0.8-2.4l-2.6-7.9l-1.4-0.9l-1.9-1.1l-8.9-29.2l-5.5,35.5l-3.5-4.6l-2.3,2.4l-4.3-0.3v15.4l2.3,10.5L678,311
				c0,0-12.7-22.3-16.3-36.3c-3.6-14-3.5-25.9-3.5-25.9L657.9,243.5z"/>
			<path class="st10" d="M672.2,328.8l2.1,8.9c0,0,8.7,22.9,9.3,25s2.1,9.4,2.1,9.4l-1.4-1.1l-1.4,4.1l-2.3-0.7l-6.4-5.2l4.1,9.5
				l8.6,27.2l21.9,2.4l-0.8-24.4l5.2-2.5l4.6,1.4l3.9-5.1l-0.4-5l7.5-10.1l2.4-0.7l0.7-4.4l3.6-6.2l0.1-3.4l-2.4,2.6l-1.5,1.7
				l-0.8,1l-1.6-0.5l-0.8-1l-1.1,1l-0.4-1.5l-1.4,1.7l-2.8-0.5l-2-2.5l-4.6-5.7l-0.7,0.5l-1.6-1.9l-1,1.2l-2.5,2.9L710,350l-0.7-1
				l-2.4-3.5l-0.8-0.2l-1.1-0.3l-8.6-12.9l2.5,18.2l-2.4-1.7l-0.8,1.5l-2.1,0.5l2.3,7.5l2.7,4.8l-6.6-3.9c0,0-9.4-9.1-13.3-15.4
				c-3.8-6.3-5.5-12.1-5.5-12.1L672.2,328.8z"/>
			<polygon class="st8" points="681.7,221.8 682.6,223.7 685,222.8 684.6,219.4 682.9,218.9 681.8,197.4 682.9,185.6 663.9,185.6 
				667.4,189.8 668.1,202.6 666,210.3 669.3,215.9 668.7,217.4 670.8,220.1 670.1,223.4 676,220.6 677,223.2 			"/>
			<path class="st8" d="M749.8,293l-1.6,14.5l8.1,13.2l3.7-2.4l6-3.5l5-15.3l-4.6-33.5l-1.4-4.7l-3.3-11.6v-14H754v13.9l-3,5.4
				c0,0,0.4,5.8,0,6.3s0,19.7,0,19.7L749.8,293z"/>
		</g>
		<g>
			<polygon class="st2" points="557,317.2 560.9,322.8 562.5,328.1 572.6,331.9 			"/>
			<polygon class="st3" points="756.3,409.9 744.6,403.9 725.3,402.4 703.5,394.2 700.6,395.7 681.4,383.1 662.1,365 658.9,365.8 
				636.1,350.3 612.4,337.2 609.6,343 596.6,354.8 591.1,379.8 592.4,383.7 599.4,391.9 597.6,393.5 622.1,403.8 628.1,409 
				637.3,413.3 768.4,413.3 760.8,409.9 			"/>
			<polygon class="st4" points="522,392.9 516.7,402.9 518.1,413.3 529.1,413.3 554.7,398.9 562.7,386.9 567.6,385.9 576.7,372.7 
				580,356.9 592.9,350.6 604.3,342.8 593.2,342 572.6,331.9 562.5,328.1 560.9,322.8 557,317.2 551.7,304.4 543.3,340.3 
				541.4,364.9 543.3,373 536.3,378.9 525,385.1 522,388.9 			"/>
			<polygon class="st5" points="775.3,398.9 803.2,406.9 815.6,406.9 821.1,413.3 867.1,413.3 860.9,406.4 857.9,406.9 848,391.5 
				832.5,379.5 829.9,369.4 822.2,374.4 808.3,378.3 790.7,390.2 783.2,393 			"/>
			<polygon class="st5" points="592.9,350.6 580,356.9 576.7,372.7 567.6,385.9 562.7,386.9 554.7,398.9 529.1,413.3 637.3,413.3 
				628.1,409 622.1,403.8 597.6,393.5 599.4,391.9 592.4,383.7 591.1,379.8 596.6,354.8 609.6,343 612.4,337.2 610.3,337.2 
				608.2,340.2 604.3,342.8 			"/>
			<polygon class="st5" points="569,320.6 568,316.4 566.7,308.9 563,299.5 563,296.3 571.6,288.6 571,286 575.5,274.3 577.4,270.6 
				575.7,270.6 570.9,277.4 568.8,278.4 566.8,277.8 556.4,281.7 551,293.2 553.1,295.6 551.7,304.4 557,317.2 572.6,331.9 
				593.2,342 586.6,333.2 			"/>
			<polygon class="st5" points="551,293.2 541.8,312.8 539.4,327.6 527.5,349.1 518,355.3 489.8,413.3 518.1,413.3 516.7,402.9 
				522,392.9 522,388.9 525,385.1 536.3,378.9 543.3,373 541.4,364.9 543.3,340.3 551.7,304.4 553.1,295.6 			"/>
			<polygon class="st2" points="829.9,369.4 832.5,379.5 848,391.5 857.9,406.9 860.9,406.4 867.1,413.3 885.7,413.3 863.8,393.7 
				860.8,394.7 840.5,376.8 835.1,374.5 			"/>
			<polygon class="st2" points="575.5,274.3 571,286 571.6,288.6 563,296.3 563,299.5 566.7,308.9 568,316.4 569,320.6 586.6,333.2 
				593.2,342 604.3,342.8 608.2,340.2 610.3,337.2 612.4,337.2 636.1,350.3 658.9,365.8 662.1,365 681.4,383.1 700.6,395.7 
				703.5,394.2 725.3,402.4 744.6,403.9 756.3,409.9 760.8,409.9 768.4,413.3 821.1,413.3 815.6,406.9 803.2,406.9 775.3,398.9 
				696.2,378.4 691.2,368.7 659.2,353.2 656.1,349.5 652.9,351.4 638.6,340.3 621.2,315.9 616.8,312.9 610.3,304.4 604.2,302.1 
				601.5,297.1 588.9,288.6 579.5,278.4 577.4,270.6 			"/>
		</g>
	</g>
</g>
<g>
	<path class="st13" d="M-111.9,451.7c4.3-6.2,9-13,13.4-19.5c7.3-10.7,13.9-20.3,16.2-24.1c0.6-0.3,1.1-0.5,1.7-0.9
		c1.1-0.6,2.2-1.2,3.4-1.8l7.2-24.1l12.7-18.9l10.4-30.1l2.5-1.5l1.5,2.5l3.2-2.1l3.3,1l3.6-1.1l18.2-44.3l3.5-3l3.1-10.8l3.8-6
		l4.5,2.2l2-3.4l6.8-3.5l3.4-10.5l1.7-0.4l0.7,3.4l4.9,17.2l5.8,19.7l12.9-48.6l6.2-3.4l3.8-4.8l8.8-0.9l3-2.3l4.6-17.7l8.4-15.3
		l7.9-9.4l4.4-10.3l-0.9-35.4l9.9-20.9l15.2-32.2l1.8-8.8l6-5.8l3.1-0.7l3,2.4l0.2,0.2l6.6,6.8l1.1,3.4l2.9,2.6l2.2,11.1l3.4,9.4
		l1.3,5.5l2.8,12.2h2.3l2,5.1l3-1.5l7,21.6l4.2,19.5l4.7,2.4l3.9,10.9l3.6,10.2c0,0,1.1,5.4,2.7,15.8l1.9-17.8l7.7-20.7l1.2,1.5
		l2.3,21.3l1.4-0.8l2.2,11.2l4.7,10.5l2.9-2.1l6.3-14.4l5-10.2h2.5c0,0,4.5,29.4,4.5,30.3s4.9,19.1,4.9,19.1l4.7,4.5v6.2l2,2.3h0.8
		l7.2,5.5l3.2-2.1c0,0,2.4,7.8,2.4,8.5c0,0.7,2.4,4.1,2.4,4.1l2.8-0.6l2-6.8l1.1-1.1l3.3,4.6l4.9,48l5.6,23.2L274,371l0.6,11.9
		c1.9,3.9,3.7,7.5,5.2,10.5c2.8,5.6,4.7,9.2,4.7,9.2l5.9,16.6l5.6-1.3l3.7-12.7l6.1,24l12,9.5l8.4,29.7l6.6,4.6h-459.4
		C-126.6,472.9-120.1,463.5-111.9,451.7z"/>
	<g class="st14">
		<polygon class="st4" points="326.7,470.3 317.7,438.6 305.7,429.2 299.6,405.1 295.9,417.9 284.5,420.4 277.6,472.9 328.9,472.9 
					"/>
		<polygon class="st15" points="30,307.2 19.7,272.1 14.8,254.9 14.1,251.6 12.4,252 8.9,262.4 2.1,265.9 0.1,269.3 -4.4,267.2 
			-8.2,273.1 -11.3,283.9 -14.8,286.9 -33,331.2 -36.6,332.3 -39.9,331.3 -43,333.3 -44.5,330.9 -47,332.4 -57.4,362.5 -70.1,381.4 
			-95.6,466.9 87,466.9 48,300 		"/>
		<path class="st15" d="M275.6,402.1L274,371l-6.5-34.2l-5.6-23.2l-4.9-48l-3.3-4.6l-1.1,1.1l-2,6.8l-2.8,0.6c0,0-2.4-3.4-2.4-4.1
			c0-0.7-2.4-8.5-2.4-8.5l-3.2,2.1l-7.2-5.5h-0.8l-2-2.3v-6.2l-4.7-4.5c0,0-4.9-18.2-4.9-19.1s-4.5-30.3-4.5-30.3h-2.5l-5,10.2
			l-6.3,14.4l-2.9,2.1l-4.7-10.5l-2.2-11.2l-1.4,0.8l-2.3-21.3l-1.2-1.5l-7.7,20.7l-21.7,205.4L275.6,402.1z"/>
		<g>
			<polygon class="st16" points="-40.6,385.7 -82.3,466.9 -40.3,466.9 -10.6,411 -8.4,391.9 -3.1,379.7 17,333.3 24.9,306 
				19.7,313.6 -3.2,341.7 -20.4,357.4 			"/>
			<polygon class="st17" points="-10.6,411 -40.3,466.9 46.6,466.9 69.8,379 69.8,370.4 68.2,363.5 74.6,347.5 79.8,334.5 
				81.8,328.1 62.9,352 54.9,353.5 37.8,368.2 23,371.3 14.2,369.5 -3.1,379.7 -8.4,391.9 			"/>
			<polygon class="st18" points="17,333.3 -3.1,379.7 14.2,369.5 23,371.3 37.8,368.2 54.9,353.5 62.9,352 81.8,328.1 97,280.7 
				97.9,273.3 94.9,266.6 94.9,261.6 120.5,194.5 124.1,177.8 112.5,148.5 110.3,133.1 102.9,145.8 100.8,158.5 98.8,138.7 
				94.5,143.8 92.4,140.2 89.5,155.9 87.3,141.6 84.6,143.6 85.5,179 81.1,189.3 73.2,198.7 64.8,214 60.2,231.6 57.2,234 
				48.8,238.2 41.3,252.8 28.1,301.4 24.9,306 			"/>
			<polygon class="st19" points="38.4,243.1 19.7,313.6 24.9,306 28.1,301.4 41.3,252.8 48.8,238.2 57.2,234 48.4,234.9 44.6,239.7 
							"/>
			<polygon class="st20" points="69.8,379 46.6,466.9 202.5,466.9 175,422.3 151.1,407.4 146.3,409.7 131.6,406 129.4,398 
				99.3,388.1 83.6,378.9 77,369.6 74.6,347.5 68.2,363.5 69.8,370.4 			"/>
			<polygon class="st21" points="79.8,334.5 74.6,347.5 77,369.6 83.6,378.9 99.3,388.1 129.4,398 131.6,406 146.3,409.7 
				151.1,407.4 142.3,402 133.8,394.3 130.1,372.4 135.2,358.4 137.5,338.5 136.6,318.1 129.7,284.8 126.1,279.3 129.4,275.4 
				123.5,267.4 123.3,262.9 129,248.1 131.8,245.6 120.5,207.4 120.5,194.5 94.9,261.6 94.9,266.6 97.9,273.3 97,280.7 81.8,328.1 
							"/>
			<path class="st22" d="M94.5,122.7l-9.9,20.9l2.7-2l2.2,14.3l2.9-15.7l2.1,3.6l4.3-5.1l2,19.9l2.1-12.8l7.4-12.6l2.2,15.4
				l1.8-22.4c-0.4-0.5-1.8-34.7-1.8-34.7l-11.9,30.1l0.7-7.7L94.5,122.7z"/>
			<path class="st23" d="M109.8,90.5l-15.2,32.2l6.8-8.9l-0.7,7.7l11.9-30.1c0,0,1.4,34.2,1.8,34.7l3.4-42.6l5.9-6l-3-2.4l-3.1,0.7
				l-6,5.8L109.8,90.5z"/>
			<path class="st17" d="M114.4,126.1l-1.8,22.4l9,12.4l-2-9.4l2-11.7l4.5,1.8l1.5-7l4.7,2l0.5-10.8l4.3,14.6l9.7,21.6l-6.5-28.8
				l-0.8-14.5l2-2.3l-1.3-5.5l-3.4-9.4l-3.5-1.3v5l-2.6-2.5l-1.9,5.2l-1.5,13.1l-6-8.3C121.3,112.8,115,126.1,114.4,126.1
				L114.4,126.1L114.4,126.1z"/>
			<path class="st17" d="M112.5,148.5l11.6,29.3l-3.6,16.6v12.9l11.3,38.2l-2.8,2.5l-5.7,14.8l0.1,4.5l5.9,8l-3.3,3.9l3.6,5.5
				l6.9,33.2l2.3,10.9l5,38.8l6.2,2.5l8.1-8l12,2.3l18.2,17.5l14.5,8.4h15l14.6,11.9l12.7,8.1l4.8,3h11.7l6.5-13.1l11.6-7
				c-6.9-13.6-19.7-39.5-27.1-56.4l-7-5.2v3.5l-5.8,5.3L203,299.4l4.4-5.2l1-2.1l-5.5-20.2l-1.9,6.1l-13.5-36.2l-5.5-5.7l-1.9,5.7
				l-5.8-21V202l-2.1-6.3l-0.8-9l-3.9-10.9l-4.7-2.4l-4.2-19.5l-7-21.6l-3,1.5l-2-5.1h-2.3l-2.8-12.2l-2,2.3l0.8,14.5l6.5,28.8
				l-9.7-21.6l-4.3-14.6l-0.5,10.8l-4.7-2l-1.5,7l-4.5-1.8l-2,11.7l2,9.4L112.5,148.5z"/>
			<path class="st24" d="M117.8,83.5l-3.4,42.6h0c0.6,0,6.9-13.3,6.9-13.3l6,8.3l1.5-13.1l1.9-5.2l2.6,2.5v-5l3.5,1.3l-2.2-11.1
				l-2.9-2.6l-1.1-3.4l-6.6-6.8l-0.2-0.2L117.8,83.5z"/>
			<polygon class="st21" points="135.2,358.4 130.1,372.4 133.8,394.3 153.8,404 162.7,410.8 169.3,411.8 177.9,406.9 193.5,408.3 
				196.9,410.8 200,406.6 234,407.8 245.3,410.4 232.6,402.3 217.9,390.4 202.9,390.4 188.5,382 170.2,364.5 158.2,362.3 
				150.1,370.3 143.9,367.8 138.9,329 136.6,318.1 137.5,338.5 			"/>
			<path class="st25" d="M133.8,394.3l8.5,7.7l8.7,5.5l23.9,14.9l27.5,44.6h104.9l-22.9-64.3c0,0-1.8-3.6-4.7-9.2l-11.6,7l-6.5,13.1
				H250l-4.8-3l-11.3-2.6l-34-1.2l-3.1,4.1l-3.4-2.5l-15.7-1.4l-8.5,4.9l-6.7-1.1l-8.9-6.8L133.8,394.3z"/>
			<path class="st26" d="M171.3,186.7l0.8,9l2.1,6.3v18.8l5.8,21l1.9-5.7l5.5,5.7l13.5,36.2l1.9-6.1l5.5,20.2l-1,2.1l-4.4,5.2
				l36.9,41.1l5.8-5.3v-3.5l7,5.2c-2.6-5.9-4.5-10.8-5.3-13.7c-12.3-7-30.2-18.1-30.2-18.1s-5.4-27.9-10.1-40.2
				c-5.6-3.1-6.9-5.1-6.9-5.1l-1.4-13.6c0,0-16-11.5-18.2-14.4c-3.3-22.8-5.6-34.9-5.6-34.9L171.3,186.7z"/>
			<path class="st26" d="M137.1,140.5l1.3,15.3l3.2,10.8v31.9l8.8,35.7l2.8-9.7l8.3,9.7l20.5,61.6l2.8-10.4l8.3,34.3l-1.4,3.6
				l-6.7,8.9l55.8,69.9l8.7-8.9v-6L260,396c-3.9-10.1-6.9-18.4-8-23.3c-18.6-11.9-45.7-30.8-45.7-30.8s-8.2-47.5-15.3-68.4
				c-8.5-5.3-10.4-8.7-10.4-8.7l-2.1-23.1c0,0-24.2-19.6-27.5-24.5c-4.9-38.8-8.5-59.4-8.5-59.4L137.1,140.5z"/>
		</g>
		<g>
			<path class="st2" d="M-126.6,472.9h459.4l-22.7-15.7c0,0-34.9-16.5-58.1-21.4c-23.1-4.9-65.8-11.9-65.8-11.9s-6.9-1.1-17-2.9
				c-21.8-4-58.3-11.4-70.2-18.8c-17.4-10.8-48.2-25-48.2-25s-14.5,8.9-29.9,8.9s-70.2-5.1-70.2-5.1s-4.5,5.3-11.1,11.4
				c-5.7,5.4-13,11.3-20.2,14.9c-0.6,0.3-1.1,0.6-1.7,0.9c-2.3,3.8-8.8,13.4-16.2,24.1c-4.4,6.4-9.1,13.3-13.4,19.5
				C-120.1,463.5-126.6,472.9-126.6,472.9z"/>
			<path class="st5" d="M-80.6,407.3c20.1-2.8,51.8-4,87.6,6.1c61.3,17.4,96.8,39.9,177,37.1c70.4-2.4,108.8,6.4,127.5,22.3h21.3
				l-22.7-15.7c0,0-34.9-16.5-58.1-21.4c-23.1-4.9-65.8-11.9-65.8-11.9s-6.9-1.1-17-2.9c-40.6,0.4-77.5,7.1-122.6-3.7
				c-50-11.9-89.9-21-107-24.8C-66.2,397.8-73.4,403.7-80.6,407.3z"/>
			<path class="st27" d="M-111.9,451.7c22.4,10.4,55.8,6.6,97.8,4.3c33.2-1.8,49.5,9.1,56.8,16.8h202.7c-17.3-3.7-43.5-7.5-78.7-7.5
				c-69.4,0-109.4-19.1-163.4-32.7c-45-11.3-77,3.5-101.7-0.3C-102.9,438.7-107.6,445.6-111.9,451.7z"/>
		</g>
	</g>
</g>
<g>
	<path class="st13" d="M232.1,460.3l7.7-8.4l31.8-7.3v-3.5c0,0,0,0,0.1,0l43.9-24l3.3-10.9l23.3-33.2l12.1-6l24.3-29.5l6-4.9
		l1.8,1.5l5,4.3l13.6-1.5l2.3-6l7.8-3.1l2.6,3.1l10.1-18.1l10.5-7.2l2.9,5.6l6.4-0.2l1.6,1v0l5,3.4l2.9-10.5l6.4-2.7l7-6.2l1.9-8.9
		l7-6.7l7-6.7l14-28.3l1.6-6.7v-0.1l3-12.4l7.2-4.4l3.5-6.8l2.5,3.3l1.6-2h8.7l2.5,2.7h3.5l7.5-8l2.6-5.8l6.1-13.4l15.3-17.1V165
		l12.5-17l4.4-12.1l5.4,3.5l2.6-0.6l6.9,24.2l15.7,7.1l6.1,16.3l6.3,14.7h6.1l3.2,27.8l6.1,15.3l21.4,13.8l11.7,7.6l28.7,22.4
		l9.6,15.6l9.5-0.9l2.8,2.9l16.3-1.7l5.4,2.3h6.9l2.9,12.1l3.4,14.4l7.1,13.1l8.2,49.5l11.4,18.9v8.5l9.3,20.6l5.6,28H222
		L232.1,460.3z"/>
	<g class="st28">
		<g>
			<path class="st29" d="M452.2,422.8L438,471.4h50.8l20.8-114.5c-16.5,0.1-31,0.4-37.3,0.5L452.2,422.8z"/>
			<polygon class="st30" points="622.5,366.5 622.3,370.2 631.8,409.8 666.6,471.4 685.8,471.4 681.1,450 652.2,409.8 653.4,388.9 
				648.1,367.3 633.4,366.5 			"/>
			<path class="st31" d="M692.3,442.1l11.3,29.3h13.4l-16.8-30.1l-1.2-5.6l-10.8-12.9l-3.2-16.7l-2.1-6.3l-1-9l-9.8-26.4v0
				c-2.6-0.2-5.1-0.4-7.1-0.5l9.4,32.9l7.3,26L692.3,442.1z"/>
			<path class="st32" d="M704.9,362.3l10.5,13.3l3.8,19.2l-6.8,14l2.8,9.9l26.9,31.3l11.1,21.4h33.2l-2.4-9.3l-29.9-30.6l-1-8.6
				l-6.4-4.3l-1.6-12.7l5.1-31.2l-4.2-9.8l-2.7-17.9l-17.4,5.8l-6.6,2.2l-3.3,7.2h-3.7c-2.6-0.2-5.1-0.2-7.5-0.1L704.9,362.3
				L704.9,362.3z"/>
			<path class="st33" d="M643.1,347l5,20.2c0,0,6-2.4,11.5-3.1l-16.9-30.8l2.2-6.3l-8.2-19.3l-20.5-17.2l0.5,6.6l5.8,5.5l-1.4,7.3
				l4.6,30.3L643.1,347z"/>
			<path class="st31" d="M662.5,258l5.6,23.2l24.5,19.6l5,9.9c0,0,16.1,29.3,4.1,29.3c-12,0-7.1,11.4-7.1,11.4l17.8,10.7h3.7
				l3.3-7.2l6.6-2.2l-9.9-6.7v-3l5-3.6l-3-5.5l-3.9-14.8v-8l-1.7-7.8l-9.6-15.6l-28.7-22.4L662.5,258z"/>
			<path class="st30" d="M590.7,138.7l-2.6,0.6l-14.3,32.3l-11.2,38.4l-6,20.7L516,321.4l-6.4,35.5c14.4-0.1,30.2,0,43.1,0.6
				c32.7,1.5,69.9,8.9,69.9,8.9l0.6-9.8L605,340.3l-5.6-45h-4.8l-0.8-2.6l-6.5-21.2l-6.7-2.3l-10.5-7.6l0.7-23.1l3.5-4.7l-6.1-14.9
				l6.3-7.8l1.9-16.3L590.7,138.7z"/>
			<polygon class="st31" points="625.7,201.1 619.4,186.4 613.3,170.1 597.6,162.9 603.6,178.9 611.1,181.7 613.2,193.9 
				616.9,194.9 624.4,211.6 			"/>
			<polygon class="st34" points="573.9,171.7 588.1,139.3 582.7,135.8 578.4,147.9 565.8,165 565.8,174.7 550.5,191.8 544.4,205.2 
				548.3,202.7 546.3,215.6 554.6,207.5 553.3,215.6 563.9,193.9 562.7,210.1 			"/>
			<polygon class="st31" points="626.6,236.8 635,228.9 631.8,201.1 625.7,201.1 624.4,211.6 619.5,215.6 618.2,232.3 593.9,292.8 
				594.7,295.3 599.4,295.3 605,340.3 623.1,356.6 622.5,366.5 633.4,366.5 648.1,367.3 643.1,347 625.7,340.3 621.1,310 
				622.5,302.7 616.7,297.2 616.2,290.6 615.9,285.4 621.1,270.6 619.5,257.4 622.1,238.6 			"/>
			<path class="st31" d="M665,364c2,0.1,4.5,0.2,7.1,0.5v0c6.9,0.5,14.3,1.3,14.3,1.3s7.7-3.2,18.6-3.6c2.4-0.1,4.9-0.1,7.5,0.1
				l-17.8-10.7l-34.3-20.7l-4.2-6.8l-19.4-16.2l8.2,19.3l-2.2,6.3l16.9,30.8c1-0.1,2-0.2,2.9-0.2C663.2,363.9,664,364,665,364z"/>
			<polygon class="st33" points="712.5,303.6 714.2,311.4 714.2,319.4 718,334.1 721.1,339.6 716.1,343.2 716.1,346.2 726,352.9 
				743.5,347 743.5,333.7 756.1,318.4 753.3,306.2 746.4,306.2 741,303.9 724.7,305.6 722,302.7 			"/>
			<path class="st29" d="M546.3,215.6l2-13l-3.9,2.5l-2.6,5.8l-15.6,16.6l-31.5,56.7l-22.5,73.2c6.3-0.1,20.8-0.5,37.3-0.5l6.4-35.5
				l40.7-90.6l6-20.7l1.3-16.2l-10.6,21.7l1.3-8.1L546.3,215.6z"/>
			<path class="st29" d="M509.5,356.9l-20.8,114.5h177.8l-34.7-61.6l-9.5-39.6l0.2-3.8c0,0-37.2-7.5-69.9-8.9
				C539.7,356.9,523.9,356.8,509.5,356.9z"/>
			<path class="st32" d="M659.6,364.1c-5.5,0.7-11.5,3.1-11.5,3.1l5.3,21.6l-1.2,20.9l28.9,40.2l4.6,21.4h17.7l-11.3-29.3
				l-10.6-19.3l-7.3-26L665,364c-0.9,0-1.8-0.1-2.5-0.1C661.6,363.9,660.6,364,659.6,364.1z"/>
			<path class="st33" d="M672.1,364.5l9.8,26.4l1,9l2.1,6.3l3.2,16.7l10.8,12.9l1.2,5.6l16.8,30.1h36.4L742.2,450l-26.9-31.3
				l-2.8-9.9l6.8-14l-3.8-19.2l-10.5-13.3v-0.1c-10.8,0.5-18.6,3.6-18.6,3.6S679,365,672.1,364.5z"/>
			<polygon class="st31" points="743.5,333.7 743.5,347 746.2,364.9 750.4,374.7 745.3,405.9 746.9,418.5 753.3,422.8 754.3,431.4 
				784.1,462.1 786.5,471.4 801.1,471.4 795.5,443.4 786.2,422.8 786.2,414.3 774.8,395.4 766.7,345.8 759.5,332.7 756.1,318.4 			
				"/>
			<path class="st32" d="M616.2,290.6l20.5,17.2l19.4,16.2l4.2,6.8l34.3,20.7c0,0-5-11.4,7.1-11.4c12,0-4.1-29.3-4.1-29.3l-5-9.9
				l-24.5-19.6l-5.6-23.2l-21.4-13.8l-6.1-15.3l-8.5,7.9l-4.5,1.7l-2.6,18.8l1.6,13.2l-5.2,14.8L616.2,290.6z"/>
			<polygon class="st32" points="574.6,211.1 568.3,219 574.4,233.9 570.9,238.6 570.2,261.7 580.7,269.3 587.4,271.6 593.9,292.8 
				618.2,232.3 619.5,215.6 624.4,211.6 616.9,194.9 613.2,193.9 611.1,181.7 603.6,178.9 597.6,162.9 590.7,138.7 576.5,194.8 			
				"/>
		</g>
		<g>
			<path class="st35" d="M271.5,441.1v3.5l-31.8,7.3l-7.7,8.4c15.2-1,33.2-1.9,47.5-1.3c31.1,1.2,138.1-4.1,132.6-12.6
				c-5.5-8.5-36.5-1.5-38.5-8.5c-2-7,30.7-7.8,47-9.3c16.3-1.5,1-9.5-46.9-8.4c0,0-0.1,0-0.1,0c-10.7,2.1-25.7,5.2-40.9,8.3
				C303.4,434.5,273.2,440.7,271.5,441.1C271.5,441.1,271.5,441.1,271.5,441.1z"/>
			<path class="st36" d="M434.1,421.3c-12.1-3.6-20.8-5.7-32.1-5.4c-3.7,0.1-7.6,0.5-12.1,1.2c-1.6,0.2-3.3,0.5-5,0.8
				c-2.7,0.5-6.5,1.2-11.2,2.2c48-1.2,63.3,6.9,46.9,8.4c-16.3,1.5-49,2.3-47,9.3c2,7,33.1,0,38.5,8.5
				c5.4,8.6-101.6,13.8-132.6,12.6c-14.3-0.5-32.3,0.3-47.5,1.3L222,471.4h198.9l10.8-26.2L434.1,421.3z"/>
			<path class="st37" d="M426.6,373.4l-6.6,17.2v11l-18,14.3c11.4-0.4,20,1.7,32.1,5.4l11-16.6l-6.3-5.6l-0.8-18.9l-6.2-10.8
				l1.6-7.3l-1.6-6.1l1.6-19.6l-3.2,10v5.8l-5.2,12.1L426.6,373.4z"/>
			<path class="st38" d="M455,419.7c-4.6-12,13.7-20.4,17.3-26c0,0,0,0,0-0.1c2.9-7.5,5.5-16.6,3.5-27.2l-4.2,17.8l-9.5,8.9l-6,5.6
				l-6-1.5l-5,7.5l-11,16.6l-2.5,23.9l-10.8,26.2h8.1c5.2-3.4,13.1-7.8,22-10.2C447.9,454.3,459.7,431.8,455,419.7z"/>
			<path class="st38" d="M518,463c0,0-15.7-12.8-30.4-24c-3.5-2.6-6.2-5.1-8.5-7.5c13.4,15.7,15.7,19.5,0,23.1
				c-15.7,3.6-29.9,6.5-13.5,10.5c9.2,2.2,5.3,4.6,0.2,6.3h94.7C548.5,466.1,518,463,518,463z"/>
			<path class="st34" d="M505.4,390.3c4.9,9.6,16.7,26.2,2.4,32.5c-14.3,6.3-14.4,15.3,8.2,25.2c22.6,9.9,53.4,10.9,56.1,18.2
				c0.7,1.9,2.3,3.6,4.2,5.1h18.8c-9.3-5.3-25.3-14.9-28.3-20.6c-3.7-7.1-11.5-13.1-21.9-19.4c-1.6-1-3.3-2-5.1-2.9
				c-13-7.4-19.2-16.3-19.2-16.3l-3.9-10.1C516.7,402.1,511.4,399.2,505.4,390.3z"/>
			<path class="st34" d="M562.3,370.2l0.7,38.8l-2.9,16.3c0,0,14.6,22.3,20.8,28.6c4.7,4.6,14.1,12.4,21.5,17.5h2.7
				c-5.4-3.7-13.2-9.5-16-14.2c-4.4-7.5-12.2-34-12.2-34l-5.8-18.5l-4.7-4.8l-2.6-29.4L562.3,370.2z"/>
			<path class="st37" d="M536,394.5l-5.1-14.3c-4.2,7.1-6.4,29.6,14,51.2c10.5,6.3,18.2,12.3,21.9,19.4c3,5.7,19,15.3,28.3,20.6h5.4
				c-9.5-6.1-26.3-17.9-37.6-32.4c-16.7-21.4-14.1-31.6-14.1-31.6L536,394.5z"/>
			<path class="st34" d="M657.8,457.5c-2.4,3.4-16.1,3.5-1,13.9h21.5L657.8,457.5z"/>
			<path class="st34" d="M584.4,425.4c0,0,30.7,12.1,33,26.2c2.1,12.9-23,6.9-3.6,19.8h8c-17.8-12.5,17.1-9.2,10.7-18.1
				c-7-9.7-31.8-30.1-31.8-30.1l-9.3-28l-9.6-29l-4.1-2.5l8.6,32.2L584.4,425.4z"/>
			<polygon class="st34" points="466.4,322 461.1,320.1 453.9,315.5 448.9,312.1 454.7,322.8 454.7,327.1 462.1,331.4 471.2,343.2 
				477.9,357.5 481.3,343.2 485.9,339.4 486.5,333.5 477.6,330.4 473.8,324.6 			"/>
			<polygon class="st39" points="488.2,316.4 497.8,302.7 503.4,302.7 505.1,283.5 507.8,279.3 510.6,274.8 518,218.2 515.5,214.9 
				512,221.7 504.8,226.1 501.8,238.6 501.8,238.7 499.1,257.2 487.9,282.9 487.9,291.4 482.4,307.5 485.5,328.1 486.8,330 
				486.9,330 			"/>
			<path class="st39" d="M378.4,337.4l-24.3,29.5l-12.1,6l-23.3,33.2l-3.3,10.9l-43.9,24c1.6-0.3,31.8-6.6,61.2-12.7l18.3-12.5
				l12.2-19.4v-11.9l9-21.3l2.9-0.9l10.3-22.9l0.7-5.5l-1.8-1.5L378.4,337.4z"/>
			<path class="st39" d="M397,404.7l-7.1,12.4c4.4-0.7,8.4-1,12.1-1.2l18-14.3v-11l6.6-17.2l-1.6-9.1l5.2-12.1v-5.8l3.2-10L438,322
				v-16.4l-10.5,7.2l-10.1,18.1l-6.3,13.9l3.1,1.7l-3.1,11.6l-5.7,5.1L397,385l1.5,4.4L397,404.7z"/>
			<path class="st34" d="M465.6,465.1c-16.3-3.9-2.2-6.9,13.5-10.5c15.7-3.6,13.4-7.4,0-23.1c-7.4-7.8-9.3-14.5-11.6-20.2
				c-1.6-3.8,1.7-9.8,4.8-17.6c-3.6,5.6-22,14-17.3,26c4.6,12.1-7.1,34.6-4.1,41.5c-8.9,2.4-16.8,6.9-22,10.2h36.9
				C471,469.8,474.8,467.3,465.6,465.1z"/>
			<polygon class="st29" points="467.5,347 458.7,366.7 454.6,392.3 450.1,397.2 456.1,398.8 462.1,393.1 471.6,384.2 475.8,366.5 
				477.9,357.5 471.2,343.2 462.1,331.4 464.5,343.2 			"/>
			<polygon class="st39" points="470.3,296 463.3,302.3 456.8,305 453.9,315.5 461.1,320.1 466.4,322 466.4,315.5 472.5,309.9 
				472.5,302.6 479.2,280.4 479.2,280.4 472.2,287.1 			"/>
			<path class="st37" d="M511.5,306.8v-20.1l-3.7-7.4l-2.7,4.2l-1.7,19.2c0,0-7.3,31.7-8.2,38.7s-0.6,29.3,6.7,42.9
				c1.2,2.2,2.3,4.1,3.5,5.8c0,0,0,0,0,0.1c6,8.9,11.3,11.8,11.3,11.8l3.9,10.1c0,0,6.2,8.9,19.2,16.3c1.7,1,3.5,2,5.1,2.9
				c-20.4-21.6-18.2-44.1-14-51.2l5.1-12.5l-5.1-3.4l-4.2-34.4l-6.4-5.5l-3.8-14.8L511.5,306.8z"/>
			<path class="st37" d="M530.8,219v62.8l8.1,7.9l16.9,79.2l6.5,1.4l1.6,0.4l2.6,29.4l4.7,4.8l5.8,18.5c0,0,7.8,26.4,12.2,34
				c2.8,4.7,10.6,10.5,16,14.2h8.6c-19.5-13,5.7-6.9,3.6-19.8c-2.3-14.2-33-26.2-33-26.2l2-29.5l-8.6-32.2v0l-8.5-5.2l-2.1-11.4
				l-3.1-1.2l-9.1-15.9l-5.6-32.2L537.1,283l-3.5-64.1L530.8,219L530.8,219z"/>
			<path class="st38" d="M630.5,438.8l-18.2-19.1l-14-26.8l-6.7,2.2l9.3,28c0,0,24.9,20.4,31.8,30.1c6.4,8.9-28.5,5.6-10.7,18.1
				h34.8c-15-10.5-1.3-10.5,1-13.9L630.5,438.8z"/>
			<path class="st38" d="M411.2,344.7l6.3-13.9l-2.6-3.1l-7.8,3.1l-2.3,6l-13.6,1.5l-5-4.3l-0.7,5.5l-10.3,22.9l-2.9,0.9l-9,21.3
				v11.9L351,415.9l-18.3,12.5c15.2-3.1,30.2-6.2,40.9-8.3c0,0,0.1,0,0.1,0c4.6-0.9,8.5-1.7,11.2-2.2c1.7-0.3,3.4-0.6,5-0.8
				l7.1-12.4l1.5-15.3L397,385l8.5-21.8l5.7-5.1l3.1-11.6L411.2,344.7z"/>
			<polygon class="st38" points="433.4,336.4 431.8,356.1 433.4,362.2 431.8,369.4 438,380.2 438.8,399.1 445.1,404.7 450.1,397.2 
				454.6,392.3 458.7,366.7 467.5,347 464.5,343.2 462.1,331.4 454.7,327.1 454.7,322.8 448.9,312.1 448.9,312 447.3,311 
				440.9,311.2 438,305.6 438,322 			"/>
			<polygon class="st37" points="472.5,302.6 472.5,309.9 466.4,315.5 466.4,322 473.8,324.6 477.6,330.4 486.5,333.5 486.9,330 
				486.8,330 485.5,328.1 482.4,307.5 487.9,291.4 487.9,282.9 499.1,257.2 501.8,238.7 500.1,245.4 486.2,273.7 479.2,280.4 
				479.2,280.4 			"/>
			<path class="st39" d="M487.6,439.1c14.7,11.2,30.4,24,30.4,24s30.4,3,42.5,8.4h15.7c-1.9-1.5-3.4-3.2-4.2-5.1
				c-2.8-7.3-33.5-8.3-56.1-18.2c-22.6-9.9-22.5-18.9-8.2-25.2c14.3-6.3,2.5-22.9-2.4-32.5c0,0,0,0,0-0.1c-1.2-1.7-2.4-3.6-3.5-5.8
				c-7.3-13.6-7.7-35.9-6.7-42.9s8.2-38.7,8.2-38.7h-5.5l-9.6,13.7l-1.4,13.5l-0.4,3.6l-0.6,5.9l-4.6,3.7l-3.4,14.4l-2.1,8.9
				c2.1,10.6-0.6,19.7-3.5,27.2c0,0,0,0,0,0.1c-3,7.9-6.4,13.8-4.8,17.6c2.3,5.7,4.3,12.3,11.6,20.2
				C481.4,433.9,484.2,436.4,487.6,439.1z"/>
			<polygon class="st38" points="533.6,219 537.1,283 549.3,297.8 554.9,330 564,345.8 567.2,347 569.3,358.4 577.8,363.6 
				577.8,363.6 581.9,366.2 591.5,395.2 598.2,393 593.8,347.3 578.2,324.2 577.3,317.6 560.4,291.6 550.4,251.8 545.4,248.8 
				541.7,219 			"/>
			<path class="st38" d="M518,218.2l-7.4,56.6l-2.8,4.5l3.7,7.4v20.1l5,2.9l3.8,14.8l6.4,5.5l4.2,34.4l5.1,3.4l-5.1,12.5l5.1,14.3
				l12.8,12.8c0,0-2.6,10.3,14.1,31.6c11.4,14.5,28.1,26.3,37.6,32.4h2c-7.5-5.1-16.9-12.8-21.5-17.5c-6.3-6.3-20.8-28.6-20.8-28.6
				l2.9-16.3l-0.7-38.8l-6.5-1.4l-16.9-79.2l-8.1-7.9V219l-2.5-2.7h-8.7L518,218.2z"/>
		</g>
	</g>
</g>
</svg>
