<?xml version="1.0" encoding="utf-8"?>
<!-- Generator: Adobe Illustrator 26.5.0, SVG Export Plug-In . SVG Version: 6.00 Build 0)  -->
<svg version="1.1" id="Capa_1" xmlns="http://www.w3.org/2000/svg" xmlns:xlink="http://www.w3.org/1999/xlink" x="0px" y="0px"
	 viewBox="0 0 1100 450" style="enable-background:new 0 0 1100 450;" xml:space="preserve">
<style type="text/css">
	.st0{opacity:0.89;}
	.st1{fill-opacity:0;}
	.st2{opacity:5.300000e-03;fill:#010101;enable-background:new    ;}
	.st3{opacity:1.060000e-02;fill:#030302;enable-background:new    ;}
	.st4{opacity:1.590000e-02;fill:#040402;enable-background:new    ;}
	.st5{opacity:2.120000e-02;fill:#050503;enable-background:new    ;}
	.st6{opacity:2.650000e-02;fill:#070704;enable-background:new    ;}
	.st7{opacity:3.170000e-02;fill:#080805;enable-background:new    ;}
	.st8{opacity:3.700000e-02;fill:#090905;enable-background:new    ;}
	.st9{opacity:4.230000e-02;fill:#0B0B06;enable-background:new    ;}
	.st10{opacity:4.760000e-02;fill:#0C0C07;enable-background:new    ;}
	.st11{opacity:5.290000e-02;fill:#0D0D08;enable-background:new    ;}
	.st12{opacity:5.820000e-02;fill:#0F0F08;enable-background:new    ;}
	.st13{opacity:6.350000e-02;fill:#101009;enable-background:new    ;}
	.st14{opacity:6.880000e-02;fill:#12120A;enable-background:new    ;}
	.st15{opacity:7.410000e-02;fill:#13130B;enable-background:new    ;}
	.st16{opacity:7.940000e-02;fill:#14140C;enable-background:new    ;}
	.st17{opacity:8.470000e-02;fill:#16160C;enable-background:new    ;}
	.st18{opacity:8.990000e-02;fill:#17170D;enable-background:new    ;}
	.st19{opacity:9.520000e-02;fill:#18180E;enable-background:new    ;}
	.st20{opacity:0.1005;fill:#1A1A0F;enable-background:new    ;}
	.st21{opacity:0.1058;fill:#1B1B0F;enable-background:new    ;}
	.st22{opacity:0.1111;fill:#1C1C10;enable-background:new    ;}
	.st23{opacity:0.1164;fill:#1E1E11;enable-background:new    ;}
	.st24{opacity:0.1217;fill:#1F1F12;enable-background:new    ;}
	.st25{opacity:0.127;fill:#202012;enable-background:new    ;}
	.st26{opacity:0.1323;fill:#222213;enable-background:new    ;}
	.st27{opacity:0.1376;fill:#232314;enable-background:new    ;}
	.st28{opacity:0.1429;fill:#242415;enable-background:new    ;}
	.st29{opacity:0.1481;fill:#262615;enable-background:new    ;}
	.st30{opacity:0.1534;fill:#272716;enable-background:new    ;}
	.st31{opacity:0.1587;fill:#282817;enable-background:new    ;}
	.st32{opacity:0.164;fill:#2A2A18;enable-background:new    ;}
	.st33{opacity:0.1693;fill:#2B2B19;enable-background:new    ;}
	.st34{opacity:0.1746;fill:#2D2D19;enable-background:new    ;}
	.st35{opacity:0.1799;fill:#2E2E1A;enable-background:new    ;}
	.st36{opacity:0.1852;fill:#2F2F1B;enable-background:new    ;}
	.st37{opacity:0.1905;fill:#31311C;enable-background:new    ;}
	.st38{opacity:0.1958;fill:#32321C;enable-background:new    ;}
	.st39{opacity:0.2011;fill:#33331D;enable-background:new    ;}
	.st40{opacity:0.2064;fill:#35351E;enable-background:new    ;}
	.st41{opacity:0.2116;fill:#36361F;enable-background:new    ;}
	.st42{opacity:0.2169;fill:#37371F;enable-background:new    ;}
	.st43{opacity:0.2222;fill:#393920;enable-background:new    ;}
	.st44{opacity:0.2275;fill:#3A3A21;enable-background:new    ;}
	.st45{opacity:0.2328;fill:#3B3B22;enable-background:new    ;}
	.st46{opacity:0.2381;fill:#3D3D23;enable-background:new    ;}
	.st47{opacity:0.2434;fill:#3E3E23;enable-background:new    ;}
	.st48{opacity:0.2487;fill:#3F3F24;enable-background:new    ;}
	.st49{opacity:0.254;fill:#414125;enable-background:new    ;}
	.st50{opacity:0.2593;fill:#424226;enable-background:new    ;}
	.st51{opacity:0.2646;fill:#434326;enable-background:new    ;}
	.st52{opacity:0.2698;fill:#454527;enable-background:new    ;}
	.st53{opacity:0.2751;fill:#464628;enable-background:new    ;}
	.st54{opacity:0.2804;fill:#484829;enable-background:new    ;}
	.st55{opacity:0.2857;fill:#494929;enable-background:new    ;}
	.st56{opacity:0.291;fill:#4A4A2A;enable-background:new    ;}
	.st57{opacity:0.2963;fill:#4C4C2B;enable-background:new    ;}
	.st58{opacity:0.3016;fill:#4D4D2C;enable-background:new    ;}
	.st59{opacity:0.3069;fill:#4E4E2C;enable-background:new    ;}
	.st60{opacity:0.3122;fill:#50502D;enable-background:new    ;}
	.st61{opacity:0.3175;fill:#51512E;enable-background:new    ;}
	.st62{opacity:0.3228;fill:#52522F;enable-background:new    ;}
	.st63{opacity:0.328;fill:#545430;enable-background:new    ;}
	.st64{opacity:0.3333;fill:#555530;enable-background:new    ;}
	.st65{opacity:0.3386;fill:#565631;enable-background:new    ;}
	.st66{opacity:0.3439;fill:#585832;enable-background:new    ;}
	.st67{opacity:0.3492;fill:#595933;enable-background:new    ;}
	.st68{opacity:0.3545;fill:#5A5A33;enable-background:new    ;}
	.st69{opacity:0.3598;fill:#5C5C34;enable-background:new    ;}
	.st70{opacity:0.3651;fill:#5D5D35;enable-background:new    ;}
	.st71{opacity:0.3704;fill:#5E5E36;enable-background:new    ;}
	.st72{opacity:0.3757;fill:#606036;enable-background:new    ;}
	.st73{opacity:0.381;fill:#616137;enable-background:new    ;}
	.st74{opacity:0.3862;fill:#626238;enable-background:new    ;}
	.st75{opacity:0.3915;fill:#646439;enable-background:new    ;}
	.st76{opacity:0.3968;fill:#65653A;enable-background:new    ;}
	.st77{opacity:0.4021;fill:#67673A;enable-background:new    ;}
	.st78{opacity:0.4074;fill:#68683B;enable-background:new    ;}
	.st79{opacity:0.4127;fill:#69693C;enable-background:new    ;}
	.st80{opacity:0.418;fill:#6B6B3D;enable-background:new    ;}
	.st81{opacity:0.4233;fill:#6C6C3D;enable-background:new    ;}
	.st82{opacity:0.4286;fill:#6D6D3E;enable-background:new    ;}
	.st83{opacity:0.4339;fill:#6F6F3F;enable-background:new    ;}
	.st84{opacity:0.4392;fill:#707040;enable-background:new    ;}
	.st85{opacity:0.4444;fill:#717140;enable-background:new    ;}
	.st86{opacity:0.4497;fill:#737341;enable-background:new    ;}
	.st87{opacity:0.455;fill:#747442;enable-background:new    ;}
	.st88{opacity:0.4603;fill:#757543;enable-background:new    ;}
	.st89{opacity:0.4656;fill:#777744;enable-background:new    ;}
	.st90{opacity:0.4709;fill:#787844;enable-background:new    ;}
	.st91{opacity:0.4762;fill:#797945;enable-background:new    ;}
	.st92{opacity:0.4815;fill:#7B7B46;enable-background:new    ;}
	.st93{opacity:0.4868;fill:#7C7C47;enable-background:new    ;}
	.st94{opacity:0.4921;fill:#7D7D47;enable-background:new    ;}
	.st95{opacity:0.4974;fill:#7F7F48;enable-background:new    ;}
	.st96{opacity:0.5026;fill:#808049;enable-background:new    ;}
	.st97{opacity:0.5079;fill:#82824A;enable-background:new    ;}
	.st98{opacity:0.5132;fill:#83834A;enable-background:new    ;}
	.st99{opacity:0.5185;fill:#84844B;enable-background:new    ;}
	.st100{opacity:0.5238;fill:#86864C;enable-background:new    ;}
	.st101{opacity:0.5291;fill:#87874D;enable-background:new    ;}
	.st102{opacity:0.5344;fill:#88884D;enable-background:new    ;}
	.st103{opacity:0.5397;fill:#8A8A4E;enable-background:new    ;}
	.st104{opacity:0.545;fill:#8B8B4F;enable-background:new    ;}
	.st105{opacity:0.5503;fill:#8C8C50;enable-background:new    ;}
	.st106{opacity:0.5556;fill:#8E8E51;enable-background:new    ;}
	.st107{opacity:0.5608;fill:#8F8F51;enable-background:new    ;}
	.st108{opacity:0.5661;fill:#909052;enable-background:new    ;}
	.st109{opacity:0.5714;fill:#929253;enable-background:new    ;}
	.st110{opacity:0.5767;fill:#939354;enable-background:new    ;}
	.st111{opacity:0.582;fill:#949454;enable-background:new    ;}
	.st112{opacity:0.5873;fill:#969655;enable-background:new    ;}
	.st113{opacity:0.5926;fill:#979756;enable-background:new    ;}
	.st114{opacity:0.5979;fill:#989857;enable-background:new    ;}
	.st115{opacity:0.6032;fill:#9A9A57;enable-background:new    ;}
	.st116{opacity:0.6085;fill:#9B9B58;enable-background:new    ;}
	.st117{opacity:0.6138;fill:#9D9D59;enable-background:new    ;}
	.st118{opacity:0.619;fill:#9E9E5A;enable-background:new    ;}
	.st119{opacity:0.6243;fill:#9F9F5B;enable-background:new    ;}
	.st120{opacity:0.6296;fill:#A1A15B;enable-background:new    ;}
	.st121{opacity:0.6349;fill:#A2A25C;enable-background:new    ;}
	.st122{opacity:0.6402;fill:#A3A35D;enable-background:new    ;}
	.st123{opacity:0.6455;fill:#A5A55E;enable-background:new    ;}
	.st124{opacity:0.6508;fill:#A6A65E;enable-background:new    ;}
	.st125{opacity:0.6561;fill:#A7A75F;enable-background:new    ;}
	.st126{opacity:0.6614;fill:#A9A960;enable-background:new    ;}
	.st127{opacity:0.6667;fill:#AAAA61;enable-background:new    ;}
	.st128{opacity:0.672;fill:#ABAB61;enable-background:new    ;}
	.st129{opacity:0.6772;fill:#ADAD62;enable-background:new    ;}
	.st130{opacity:0.6825;fill:#AEAE63;enable-background:new    ;}
	.st131{opacity:0.6878;fill:#AFAF64;enable-background:new    ;}
	.st132{opacity:0.6931;fill:#B1B165;enable-background:new    ;}
	.st133{opacity:0.6984;fill:#B2B265;enable-background:new    ;}
	.st134{opacity:0.7037;fill:#B3B366;enable-background:new    ;}
	.st135{opacity:0.709;fill:#B5B567;enable-background:new    ;}
	.st136{opacity:0.7143;fill:#B6B668;enable-background:new    ;}
	.st137{opacity:0.7196;fill:#B7B768;enable-background:new    ;}
	.st138{opacity:0.7249;fill:#B9B969;enable-background:new    ;}
	.st139{opacity:0.7302;fill:#BABA6A;enable-background:new    ;}
	.st140{opacity:0.7355;fill:#BCBC6B;enable-background:new    ;}
	.st141{opacity:0.7407;fill:#BDBD6B;enable-background:new    ;}
	.st142{opacity:0.746;fill:#BEBE6C;enable-background:new    ;}
	.st143{opacity:0.7513;fill:#C0C06D;enable-background:new    ;}
	.st144{opacity:0.7566;fill:#C1C16E;enable-background:new    ;}
	.st145{opacity:0.7619;fill:#C2C26E;enable-background:new    ;}
	.st146{opacity:0.7672;fill:#C4C46F;enable-background:new    ;}
	.st147{opacity:0.7725;fill:#C5C570;enable-background:new    ;}
	.st148{opacity:0.7778;fill:#C6C671;enable-background:new    ;}
	.st149{opacity:0.7831;fill:#C8C872;enable-background:new    ;}
	.st150{opacity:0.7884;fill:#C9C972;enable-background:new    ;}
	.st151{opacity:0.7937;fill:#CACA73;enable-background:new    ;}
	.st152{opacity:0.7989;fill:#CCCC74;enable-background:new    ;}
	.st153{opacity:0.8042;fill:#CDCD75;enable-background:new    ;}
	.st154{opacity:0.8095;fill:#CECE75;enable-background:new    ;}
	.st155{opacity:0.8148;fill:#D0D076;enable-background:new    ;}
	.st156{opacity:0.8201;fill:#D1D177;enable-background:new    ;}
	.st157{opacity:0.8254;fill:#D2D278;enable-background:new    ;}
	.st158{opacity:0.8307;fill:#D4D478;enable-background:new    ;}
	.st159{opacity:0.836;fill:#D5D579;enable-background:new    ;}
	.st160{opacity:0.8413;fill:#D7D77A;enable-background:new    ;}
	.st161{opacity:0.8466;fill:#D8D87B;enable-background:new    ;}
	.st162{opacity:0.8519;fill:#D9D97C;enable-background:new    ;}
	.st163{opacity:0.8571;fill:#DBDB7C;enable-background:new    ;}
	.st164{opacity:0.8624;fill:#DCDC7D;enable-background:new    ;}
	.st165{opacity:0.8677;fill:#DDDD7E;enable-background:new    ;}
	.st166{opacity:0.873;fill:#DFDF7F;enable-background:new    ;}
	.st167{opacity:0.8783;fill:#E0E07F;enable-background:new    ;}
	.st168{opacity:0.8836;fill:#E1E180;enable-background:new    ;}
	.st169{opacity:0.8889;fill:#E3E381;enable-background:new    ;}
	.st170{opacity:0.8942;fill:#E4E482;enable-background:new    ;}
	.st171{opacity:0.8995;fill:#E5E582;enable-background:new    ;}
	.st172{opacity:0.9048;fill:#E7E783;enable-background:new    ;}
	.st173{opacity:0.9101;fill:#E8E884;enable-background:new    ;}
	.st174{opacity:0.9153;fill:#E9E985;enable-background:new    ;}
	.st175{opacity:0.9206;fill:#EBEB85;enable-background:new    ;}
	.st176{opacity:0.9259;fill:#ECEC86;enable-background:new    ;}
	.st177{opacity:0.9312;fill:#EDED87;enable-background:new    ;}
	.st178{opacity:0.9365;fill:#EFEF88;enable-background:new    ;}
	.st179{opacity:0.9418;fill:#F0F089;enable-background:new    ;}
	.st180{opacity:0.9471;fill:#F2F289;enable-background:new    ;}
	.st181{opacity:0.9524;fill:#F3F38A;enable-background:new    ;}
	.st182{opacity:0.9577;fill:#F4F48B;enable-background:new    ;}
	.st183{opacity:0.963;fill:#F6F68C;enable-background:new    ;}
	.st184{opacity:0.9683;fill:#F7F78C;enable-background:new    ;}
	.st185{opacity:0.9735;fill:#F8F88D;enable-background:new    ;}
	.st186{opacity:0.9788;fill:#FAFA8E;enable-background:new    ;}
	.st187{opacity:0.9841;fill:#FBFB8F;enable-background:new    ;}
	.st188{opacity:0.9894;fill:#FCFC8F;enable-background:new    ;}
	.st189{opacity:0.9947;fill:#FEFE90;enable-background:new    ;}
	.st190{fill:#FFFF91;}
	.st191{display:none;opacity:0.53;}
	.st192{display:inline;}
	.st193{display:inline;fill:#050500;}
	.st194{display:inline;fill:#0A0A00;}
	.st195{display:inline;fill:#0F0F00;}
	.st196{display:inline;fill:#141400;}
	.st197{display:inline;fill:#191900;}
	.st198{display:inline;fill:#1E1E00;}
	.st199{display:inline;fill:#232300;}
	.st200{display:inline;fill:#282800;}
	.st201{display:inline;fill:#2D2D00;}
	.st202{display:inline;fill:#323200;}
	.st203{display:inline;fill:#373700;}
	.st204{display:inline;fill:#3C3C00;}
	.st205{display:inline;fill:#414100;}
	.st206{display:inline;fill:#464600;}
	.st207{display:inline;fill:#4B4B00;}
	.st208{display:inline;fill:#505000;}
	.st209{display:inline;fill:#555500;}
	.st210{display:inline;fill:#5A5A00;}
	.st211{display:inline;fill:#5F5F00;}
	.st212{display:inline;fill:#646400;}
	.st213{display:inline;fill:#696900;}
	.st214{display:inline;fill:#6E6E00;}
	.st215{display:inline;fill:#737300;}
	.st216{display:inline;fill:#787800;}
	.st217{display:inline;fill:#7D7D00;}
	.st218{display:inline;fill:#828200;}
	.st219{display:inline;fill:#878700;}
	.st220{display:inline;fill:#8C8C00;}
	.st221{display:inline;fill:#919100;}
	.st222{display:inline;fill:#969600;}
	.st223{display:inline;fill:#9B9B00;}
	.st224{display:inline;fill:#A0A000;}
	.st225{display:inline;fill:#A5A500;}
	.st226{display:inline;fill:#AAAA00;}
	.st227{display:inline;fill:#AFAF00;}
	.st228{display:inline;fill:#B4B400;}
	.st229{display:inline;fill:#B9B900;}
	.st230{display:inline;fill:#BEBE00;}
	.st231{display:inline;fill:#C3C300;}
	.st232{display:inline;fill:#C8C800;}
	.st233{display:inline;fill:#CDCD00;}
	.st234{display:inline;fill:#D2D200;}
	.st235{display:inline;fill:#D7D700;}
	.st236{display:inline;fill:#DCDC00;}
	.st237{display:inline;fill:#E1E100;}
	.st238{display:inline;fill:#E6E600;}
	.st239{display:inline;fill:#EBEB00;}
	.st240{display:inline;fill:#F0F000;}
	.st241{display:inline;fill:#F5F500;}
	.st242{display:inline;fill:#FAFA00;}
	.st243{display:inline;fill:#FFFF00;}
	.st244{display:none;opacity:0.53;fill:url(#SVGID_1_);enable-background:new    ;}
	.st245{fill:none;}
</style>
<g id="Layer_2">
</g>
<g class="st0">
	<circle class="st1" cx="487.9" cy="156.6" r="102.9"/>
	<circle class="st2" cx="487.9" cy="156.6" r="102.7"/>
	<circle class="st3" cx="487.9" cy="156.6" r="102.6"/>
	<circle class="st4" cx="487.9" cy="156.6" r="102.5"/>
	<circle class="st5" cx="487.9" cy="156.6" r="102.4"/>
	<circle class="st6" cx="487.9" cy="156.6" r="102.3"/>
	<circle class="st7" cx="487.9" cy="156.6" r="102.1"/>
	<circle class="st8" cx="487.9" cy="156.6" r="102"/>
	<circle class="st9" cx="487.9" cy="156.6" r="101.9"/>
	<circle class="st10" cx="487.9" cy="156.6" r="101.8"/>
	<circle class="st11" cx="487.9" cy="156.6" r="101.6"/>
	<circle class="st12" cx="487.9" cy="156.6" r="101.5"/>
	<circle class="st13" cx="487.9" cy="156.6" r="101.4"/>
	<circle class="st14" cx="487.9" cy="156.6" r="101.3"/>
	<circle class="st15" cx="487.9" cy="156.6" r="101.2"/>
	<circle class="st16" cx="487.9" cy="156.6" r="101"/>
	<circle class="st17" cx="487.9" cy="156.6" r="100.9"/>
	<circle class="st18" cx="487.9" cy="156.6" r="100.8"/>
	<circle class="st19" cx="487.9" cy="156.6" r="100.7"/>
	<circle class="st20" cx="487.9" cy="156.6" r="100.6"/>
	<circle class="st21" cx="487.9" cy="156.6" r="100.4"/>
	<circle class="st22" cx="487.9" cy="156.6" r="100.3"/>
	<circle class="st23" cx="487.9" cy="156.6" r="100.2"/>
	<circle class="st24" cx="487.9" cy="156.6" r="100.1"/>
	<circle class="st25" cx="487.9" cy="156.6" r="99.9"/>
	<circle class="st26" cx="487.9" cy="156.6" r="99.8"/>
	<circle class="st27" cx="487.9" cy="156.6" r="99.7"/>
	<circle class="st28" cx="487.9" cy="156.6" r="99.6"/>
	<circle class="st29" cx="487.9" cy="156.6" r="99.5"/>
	<circle class="st30" cx="487.9" cy="156.6" r="99.3"/>
	<circle class="st31" cx="487.9" cy="156.6" r="99.2"/>
	<circle class="st32" cx="487.9" cy="156.6" r="99.1"/>
	<circle class="st33" cx="487.9" cy="156.6" r="99"/>
	<circle class="st34" cx="487.9" cy="156.6" r="98.8"/>
	<circle class="st35" cx="487.9" cy="156.6" r="98.7"/>
	<circle class="st36" cx="487.9" cy="156.6" r="98.6"/>
	<circle class="st37" cx="487.9" cy="156.6" r="98.5"/>
	<circle class="st38" cx="487.9" cy="156.6" r="98.4"/>
	<circle class="st39" cx="487.9" cy="156.6" r="98.2"/>
	<circle class="st40" cx="487.9" cy="156.6" r="98.1"/>
	<circle class="st41" cx="487.9" cy="156.6" r="98"/>
	<circle class="st42" cx="487.9" cy="156.6" r="97.9"/>
	<circle class="st43" cx="487.9" cy="156.6" r="97.8"/>
	<circle class="st44" cx="487.9" cy="156.6" r="97.6"/>
	<circle class="st45" cx="487.9" cy="156.6" r="97.5"/>
	<circle class="st46" cx="487.9" cy="156.6" r="97.4"/>
	<circle class="st47" cx="487.9" cy="156.6" r="97.3"/>
	<circle class="st48" cx="487.9" cy="156.6" r="97.1"/>
	<circle class="st49" cx="487.9" cy="156.6" r="97"/>
	<circle class="st50" cx="487.9" cy="156.6" r="96.9"/>
	<circle class="st51" cx="487.9" cy="156.6" r="96.8"/>
	<circle class="st52" cx="487.9" cy="156.6" r="96.7"/>
	<circle class="st53" cx="487.9" cy="156.6" r="96.5"/>
	<circle class="st54" cx="487.9" cy="156.6" r="96.4"/>
	<circle class="st55" cx="487.9" cy="156.6" r="96.3"/>
	<circle class="st56" cx="487.9" cy="156.6" r="96.2"/>
	<circle class="st57" cx="487.9" cy="156.6" r="96.1"/>
	<circle class="st58" cx="487.9" cy="156.6" r="95.9"/>
	<circle class="st59" cx="487.9" cy="156.6" r="95.8"/>
	<circle class="st60" cx="487.9" cy="156.6" r="95.7"/>
	<circle class="st61" cx="487.9" cy="156.6" r="95.6"/>
	<circle class="st62" cx="487.9" cy="156.6" r="95.4"/>
	<circle class="st63" cx="487.9" cy="156.6" r="95.3"/>
	<circle class="st64" cx="487.9" cy="156.6" r="95.2"/>
	<circle class="st65" cx="487.9" cy="156.6" r="95.1"/>
	<circle class="st66" cx="487.9" cy="156.6" r="95"/>
	<circle class="st67" cx="487.9" cy="156.6" r="94.8"/>
	<circle class="st68" cx="487.9" cy="156.6" r="94.7"/>
	<circle class="st69" cx="487.9" cy="156.6" r="94.6"/>
	<circle class="st70" cx="487.9" cy="156.6" r="94.5"/>
	<circle class="st71" cx="487.9" cy="156.6" r="94.4"/>
	<circle class="st72" cx="487.9" cy="156.6" r="94.2"/>
	<circle class="st73" cx="487.9" cy="156.6" r="94.1"/>
	<circle class="st74" cx="487.9" cy="156.6" r="94"/>
	<circle class="st75" cx="487.9" cy="156.6" r="93.9"/>
	<circle class="st76" cx="487.9" cy="156.6" r="93.7"/>
	<circle class="st77" cx="487.9" cy="156.6" r="93.6"/>
	<circle class="st78" cx="487.9" cy="156.6" r="93.5"/>
	<circle class="st79" cx="487.9" cy="156.6" r="93.4"/>
	<circle class="st80" cx="487.9" cy="156.6" r="93.3"/>
	<circle class="st81" cx="487.9" cy="156.6" r="93.1"/>
	<circle class="st82" cx="487.9" cy="156.6" r="93"/>
	<circle class="st83" cx="487.9" cy="156.6" r="92.9"/>
	<circle class="st84" cx="487.9" cy="156.6" r="92.8"/>
	<circle class="st85" cx="487.9" cy="156.6" r="92.6"/>
	<circle class="st86" cx="487.9" cy="156.6" r="92.5"/>
	<circle class="st87" cx="487.9" cy="156.6" r="92.4"/>
	<circle class="st88" cx="487.9" cy="156.6" r="92.3"/>
	<circle class="st89" cx="487.9" cy="156.6" r="92.2"/>
	<circle class="st90" cx="487.9" cy="156.6" r="92"/>
	<circle class="st91" cx="487.9" cy="156.6" r="91.9"/>
	<circle class="st92" cx="487.9" cy="156.6" r="91.8"/>
	<circle class="st93" cx="487.9" cy="156.6" r="91.7"/>
	<circle class="st94" cx="487.9" cy="156.6" r="91.6"/>
	<circle class="st95" cx="487.9" cy="156.6" r="91.4"/>
	<circle class="st96" cx="487.9" cy="156.6" r="91.3"/>
	<circle class="st97" cx="487.9" cy="156.6" r="91.2"/>
	<circle class="st98" cx="487.9" cy="156.6" r="91.1"/>
	<circle class="st99" cx="487.9" cy="156.6" r="90.9"/>
	<circle class="st100" cx="487.9" cy="156.6" r="90.8"/>
	<circle class="st101" cx="487.9" cy="156.6" r="90.7"/>
	<circle class="st102" cx="487.9" cy="156.6" r="90.6"/>
	<circle class="st103" cx="487.9" cy="156.6" r="90.5"/>
	<circle class="st104" cx="487.9" cy="156.6" r="90.3"/>
	<circle class="st105" cx="487.9" cy="156.6" r="90.2"/>
	<circle class="st106" cx="487.9" cy="156.6" r="90.1"/>
	<circle class="st107" cx="487.9" cy="156.6" r="90"/>
	<circle class="st108" cx="487.9" cy="156.6" r="89.9"/>
	<circle class="st109" cx="487.9" cy="156.6" r="89.7"/>
	<circle class="st110" cx="487.9" cy="156.6" r="89.6"/>
	<circle class="st111" cx="487.9" cy="156.6" r="89.5"/>
	<circle class="st112" cx="487.9" cy="156.6" r="89.4"/>
	<circle class="st113" cx="487.9" cy="156.6" r="89.2"/>
	<circle class="st114" cx="487.9" cy="156.6" r="89.1"/>
	<circle class="st115" cx="487.9" cy="156.6" r="89"/>
	<circle class="st116" cx="487.9" cy="156.6" r="88.9"/>
	<circle class="st117" cx="487.9" cy="156.6" r="88.8"/>
	<circle class="st118" cx="487.9" cy="156.6" r="88.6"/>
	<circle class="st119" cx="487.9" cy="156.6" r="88.5"/>
	<circle class="st120" cx="487.9" cy="156.6" r="88.4"/>
	<circle class="st121" cx="487.9" cy="156.6" r="88.3"/>
	<circle class="st122" cx="487.9" cy="156.6" r="88.2"/>
	<circle class="st123" cx="487.9" cy="156.6" r="88"/>
	<circle class="st124" cx="487.9" cy="156.6" r="87.9"/>
	<circle class="st125" cx="487.9" cy="156.6" r="87.8"/>
	<circle class="st126" cx="487.9" cy="156.6" r="87.7"/>
	<circle class="st127" cx="487.9" cy="156.6" r="87.5"/>
	<circle class="st128" cx="487.9" cy="156.6" r="87.4"/>
	<circle class="st129" cx="487.9" cy="156.6" r="87.3"/>
	<circle class="st130" cx="487.9" cy="156.6" r="87.2"/>
	<circle class="st131" cx="487.9" cy="156.6" r="87.1"/>
	<circle class="st132" cx="487.9" cy="156.6" r="86.9"/>
	<circle class="st133" cx="487.9" cy="156.6" r="86.8"/>
	<circle class="st134" cx="487.9" cy="156.6" r="86.7"/>
	<circle class="st135" cx="487.9" cy="156.6" r="86.6"/>
	<circle class="st136" cx="487.9" cy="156.6" r="86.5"/>
	<circle class="st137" cx="487.9" cy="156.6" r="86.3"/>
	<circle class="st138" cx="487.9" cy="156.6" r="86.2"/>
	<circle class="st139" cx="487.9" cy="156.6" r="86.1"/>
	<circle class="st140" cx="487.9" cy="156.6" r="86"/>
	<circle class="st141" cx="487.9" cy="156.6" r="85.8"/>
	<circle class="st142" cx="487.9" cy="156.6" r="85.7"/>
	<circle class="st143" cx="487.9" cy="156.6" r="85.6"/>
	<circle class="st144" cx="487.9" cy="156.6" r="85.5"/>
	<circle class="st145" cx="487.9" cy="156.6" r="85.4"/>
	<circle class="st146" cx="487.9" cy="156.6" r="85.2"/>
	<circle class="st147" cx="487.9" cy="156.6" r="85.1"/>
	<circle class="st148" cx="487.9" cy="156.6" r="85"/>
	<circle class="st149" cx="487.9" cy="156.6" r="84.9"/>
	<circle class="st150" cx="487.9" cy="156.6" r="84.7"/>
	<circle class="st151" cx="487.9" cy="156.6" r="84.6"/>
	<circle class="st152" cx="487.9" cy="156.6" r="84.5"/>
	<circle class="st153" cx="487.9" cy="156.6" r="84.4"/>
	<circle class="st154" cx="487.9" cy="156.6" r="84.3"/>
	<circle class="st155" cx="487.9" cy="156.6" r="84.1"/>
	<circle class="st156" cx="487.9" cy="156.6" r="84"/>
	<circle class="st157" cx="487.9" cy="156.6" r="83.9"/>
	<circle class="st158" cx="487.9" cy="156.6" r="83.8"/>
	<circle class="st159" cx="487.9" cy="156.6" r="83.7"/>
	<circle class="st160" cx="487.9" cy="156.6" r="83.5"/>
	<circle class="st161" cx="487.9" cy="156.6" r="83.4"/>
	<circle class="st162" cx="487.9" cy="156.6" r="83.3"/>
	<circle class="st163" cx="487.9" cy="156.6" r="83.2"/>
	<circle class="st164" cx="487.9" cy="156.6" r="83"/>
	<circle class="st165" cx="487.9" cy="156.6" r="82.9"/>
	<circle class="st166" cx="487.9" cy="156.6" r="82.8"/>
	<circle class="st167" cx="487.9" cy="156.6" r="82.7"/>
	<circle class="st168" cx="487.9" cy="156.6" r="82.6"/>
	<circle class="st169" cx="487.9" cy="156.6" r="82.4"/>
	<circle class="st170" cx="487.9" cy="156.6" r="82.3"/>
	<circle class="st171" cx="487.9" cy="156.6" r="82.2"/>
	<circle class="st172" cx="487.9" cy="156.6" r="82.1"/>
	<circle class="st173" cx="487.9" cy="156.6" r="82"/>
	<circle class="st174" cx="487.9" cy="156.6" r="81.8"/>
	<circle class="st175" cx="487.9" cy="156.6" r="81.7"/>
	<circle class="st176" cx="487.9" cy="156.6" r="81.6"/>
	<circle class="st177" cx="487.9" cy="156.6" r="81.5"/>
	<circle class="st178" cx="487.9" cy="156.6" r="81.3"/>
	<circle class="st179" cx="487.9" cy="156.6" r="81.2"/>
	<circle class="st180" cx="487.9" cy="156.6" r="81.1"/>
	<circle class="st181" cx="487.9" cy="156.6" r="81"/>
	<circle class="st182" cx="487.9" cy="156.6" r="80.9"/>
	<circle class="st183" cx="487.9" cy="156.6" r="80.7"/>
	<circle class="st184" cx="487.9" cy="156.6" r="80.6"/>
	<circle class="st185" cx="487.9" cy="156.6" r="80.5"/>
	<circle class="st186" cx="487.9" cy="156.6" r="80.4"/>
	<circle class="st187" cx="487.9" cy="156.6" r="80.2"/>
	<circle class="st188" cx="487.9" cy="156.6" r="80.1"/>
	<circle class="st189" cx="487.9" cy="156.6" r="80"/>
	<circle class="st190" cx="487.9" cy="156.6" r="79.9"/>
</g>
<image style="display:none;overflow:visible;opacity:0.33;enable-background:new    ;" width="1277" height="519" xlink:href="FBDBEB5C.png"  transform="matrix(1 0 0 1 -49 -52)">
</image>
<g class="st191">
	<path class="st192" d="M826.5,245.4c0,186-150.8,151.5-336.8,151.5s-336.8,34.5-336.8-151.5S303.7-91.4,489.7-91.4
		C675.7-91.4,826.5,59.4,826.5,245.4z"/>
	<path class="st193" d="M820.1,245.4c0,182.5-147.9,148.8-330.4,148.8s-330.4,33.7-330.4-148.8C159.3,62.9,307.2-85,489.7-85
		S820.1,62.9,820.1,245.4z"/>
	<path class="st194" d="M813.7,245.4c0,179-145.1,146-324,146c-179,0-324,32.9-324-146c0-179,145.1-324,324-324
		C668.7-78.7,813.7,66.4,813.7,245.4z"/>
	<path class="st195" d="M807.4,245.4c0,175.5-142.2,143.3-317.7,143.3S172,420.8,172,245.4C172,69.9,314.2-72.3,489.7-72.3
		C665.1-72.3,807.4,69.9,807.4,245.4z"/>
	<path class="st196" d="M801,245.4C801,417.3,661.6,386,489.7,386s-311.3,31.4-311.3-140.6C178.4,73.4,317.8-66,489.7-66
		S801,73.4,801,245.4z"/>
	<path class="st197" d="M794.6,245.4c0,168.4-136.5,137.9-305,137.9c-168.4,0-305,30.6-305-137.9s136.5-305,305-305
		C658.1-59.6,794.6,76.9,794.6,245.4z"/>
	<path class="st198" d="M788.3,245.4c0,164.9-133.7,135.1-298.6,135.1s-298.6,29.8-298.6-135.1S324.8-53.2,489.7-53.2
		S788.3,80.4,788.3,245.4z"/>
	<path class="st199" d="M781.9,245.4c0,161.4-130.8,132.4-292.2,132.4s-292.2,29-292.2-132.4S328.3-46.9,489.7-46.9
		S781.9,84,781.9,245.4z"/>
	<path class="st200" d="M775.6,245.4c0,157.9-128,129.7-285.9,129.7s-285.9,28.2-285.9-129.7s128-285.9,285.9-285.9
		C647.6-40.5,775.6,87.5,775.6,245.4z"/>
	<path class="st201" d="M769.2,245.4c0,154.4-125.1,126.9-279.5,126.9s-279.5,27.4-279.5-126.9C210.2,91,335.3-34.2,489.7-34.2
		S769.2,91,769.2,245.4z"/>
	<path class="st202" d="M762.8,245.4c0,150.9-122.3,124.2-273.2,124.2s-273.2,26.6-273.2-124.2c0-150.9,122.3-273.2,273.2-273.2
		S762.8,94.5,762.8,245.4z"/>
	<path class="st203" d="M756.5,245.4c0,147.3-119.4,121.5-266.8,121.5c-147.3,0-266.8,25.9-266.8-121.5
		C222.9,98,342.3-21.4,489.7-21.4C637-21.4,756.5,98,756.5,245.4z"/>
	<path class="st204" d="M750.1,245.4c0,143.8-116.6,118.8-260.4,118.8s-260.4,25.1-260.4-118.8C229.3,101.6,345.9-15,489.7-15
		C633.5-15.1,750.1,101.5,750.1,245.4z"/>
	<path class="st205" d="M743.8,245.4c0,140.3-113.8,116-254.1,116s-254.1,24.3-254.1-116C235.6,105,349.4-8.7,489.7-8.7
		S743.8,105,743.8,245.4z"/>
	<path class="st206" d="M737.4,245.4c0,136.8-110.9,113.3-247.7,113.3S242,382.2,242,245.4C242,108.5,352.9-2.4,489.7-2.4
		S737.4,108.5,737.4,245.4z"/>
	<path class="st207" d="M731,245.4C731,378.7,622.9,356,489.7,356s-241.3,22.7-241.3-110.6C248.3,112.1,356.4,4,489.7,4
		S731,112.1,731,245.4z"/>
	<path class="st208" d="M724.7,245.4c0,129.8-105.2,107.8-235,107.8s-235,21.9-235-107.8s105.2-235,235-235
		C619.5,10.4,724.7,115.6,724.7,245.4z"/>
	<path class="st209" d="M718.3,245.4c0,126.3-102.4,105.1-228.6,105.1c-126.3,0-228.6,21.1-228.6-105.1S363.4,16.7,489.7,16.7
		S718.3,119.1,718.3,245.4z"/>
	<path class="st210" d="M712,245.4c0,122.8-99.5,102.4-222.3,102.4s-222.3,20.4-222.3-102.4S366.9,23.1,489.7,23.1
		S712,122.6,712,245.4z"/>
	<path class="st211" d="M705.6,245.4c0,119.2-96.7,99.7-215.9,99.7s-215.9,19.6-215.9-99.7c0-119.2,96.7-215.9,215.9-215.9
		C608.9,29.5,705.6,126.1,705.6,245.4z"/>
	<path class="st212" d="M699.2,245.4c0,115.7-93.8,96.9-209.5,96.9s-209.5,18.8-209.5-96.9S374,35.9,489.7,35.9
		C605.4,35.8,699.2,129.6,699.2,245.4z"/>
	<path class="st213" d="M692.9,245.4c0,112.2-91,94.2-203.2,94.2s-203.2,18-203.2-94.2s91-203.2,203.2-203.2
		C601.9,42.2,692.9,133.1,692.9,245.4z"/>
	<path class="st214" d="M686.5,245.4c0,108.7-88.1,91.5-196.8,91.5s-196.8,17.2-196.8-91.5S381,48.6,489.7,48.6
		C598.4,48.5,686.5,136.7,686.5,245.4z"/>
	<path class="st215" d="M680.1,245.4c0,105.2-85.3,88.7-190.5,88.7s-190.5,16.4-190.5-88.7c0-105.2,85.3-190.5,190.5-190.5
		C594.9,54.9,680.1,140.2,680.1,245.4z"/>
	<path class="st216" d="M673.8,245.4c0,101.7-82.4,86-184.1,86s-184.1,15.7-184.1-86S388,61.3,489.7,61.3
		C591.4,61.3,673.8,143.7,673.8,245.4z"/>
	<path class="st217" d="M667.4,245.4c0,98.2-79.6,83.3-177.7,83.3c-98.2,0-177.7,14.9-177.7-83.3S391.6,67.7,489.7,67.7
		C587.9,67.6,667.4,147.2,667.4,245.4z"/>
	<path class="st218" d="M661.1,245.4c0,94.6-76.7,80.6-171.4,80.6c-94.6,0-171.4,14.1-171.4-80.6S395,74,489.7,74
		C584.3,74,661.1,150.7,661.1,245.4z"/>
	<path class="st219" d="M654.7,245.4c0,91.1-73.9,77.8-165,77.8s-165,13.3-165-77.8s73.9-165,165-165
		C580.8,80.3,654.7,154.2,654.7,245.4z"/>
	<path class="st220" d="M648.3,245.4c0,87.6-71,75.1-158.7,75.1c-87.6,0-158.7,12.5-158.7-75.1s71-158.7,158.7-158.7
		S648.3,157.7,648.3,245.4z"/>
	<path class="st221" d="M642,245.4c0,84.1-68.2,72.4-152.3,72.4s-152.3,11.7-152.3-72.4S405.6,93.1,489.7,93.1
		C573.8,93.1,642,161.2,642,245.4z"/>
	<path class="st222" d="M635.6,245.4c0,80.6-65.3,69.6-145.9,69.6s-145.9,11-145.9-69.6S409.1,99.5,489.7,99.5
		S635.6,164.8,635.6,245.4z"/>
	<path class="st223" d="M629.3,245.4c0,77.1-62.5,66.9-139.6,66.9s-139.6,10.2-139.6-66.9s62.5-139.6,139.6-139.6
		S629.3,168.3,629.3,245.4z"/>
	<path class="st224" d="M622.9,245.4c0,73.6-59.6,64.2-133.2,64.2s-133.2,9.4-133.2-64.2s59.6-133.2,133.2-133.2
		S622.9,171.8,622.9,245.4z"/>
	<path class="st225" d="M616.5,245.4c0,70.1-56.8,61.5-126.8,61.5s-126.8,8.6-126.8-61.5s56.8-126.8,126.8-126.8
		C559.7,118.5,616.5,175.3,616.5,245.4z"/>
	<path class="st226" d="M610.2,245.4c0,66.5-53.9,58.7-120.5,58.7s-120.5,7.8-120.5-58.7s53.9-120.5,120.5-120.5
		S610.2,178.8,610.2,245.4z"/>
	<path class="st227" d="M603.8,245.4c0,63-51.1,56-114.1,56s-114.1,7-114.1-56s51.1-114.1,114.1-114.1S603.8,182.3,603.8,245.4z"/>
	<path class="st228" d="M597.5,245.4c0,59.5-48.2,53.3-107.8,53.3c-59.5,0-107.8,6.2-107.8-53.3s48.2-107.8,107.8-107.8
		C549.2,137.6,597.5,185.8,597.5,245.4z"/>
	<path class="st229" d="M591.1,245.4c0,56-45.4,50.5-101.4,50.5s-101.4,5.5-101.4-50.5S433.7,144,489.7,144S591.1,189.4,591.1,245.4
		z"/>
	<path class="st230" d="M584.7,245.4c0,52.5-42.6,47.8-95,47.8s-95,4.7-95-47.8s42.6-95,95-95S584.7,192.9,584.7,245.4z"/>
	<path class="st231" d="M578.4,245.4c0,49-39.7,45.1-88.7,45.1s-88.7,3.9-88.7-45.1s39.7-88.7,88.7-88.7S578.4,196.4,578.4,245.4z"
		/>
	<path class="st232" d="M572,245.4c0,45.5-36.9,42.4-82.3,42.4c-45.5,0-82.3,3.1-82.3-42.4s36.9-82.3,82.3-82.3S572,199.9,572,245.4
		z"/>
	<path class="st233" d="M565.6,245.4c0,42-34,39.6-76,39.6s-76,2.3-76-39.6c0-42,34-76,76-76S565.6,203.4,565.6,245.4z"/>
	<path class="st234" d="M559.3,245.4c0,38.4-31.2,36.9-69.6,36.9s-69.6,1.5-69.6-36.9s31.2-69.6,69.6-69.6
		C528.1,175.8,559.3,206.9,559.3,245.4z"/>
	<path class="st235" d="M552.9,245.4c0,34.9-28.3,34.2-63.2,34.2s-63.2,0.7-63.2-34.2s28.3-63.2,63.2-63.2
		C524.6,182.1,552.9,210.4,552.9,245.4z"/>
	<path class="st236" d="M546.6,245.4c0,31.4-25.5,31.4-56.9,31.4s-56.9,0-56.9-31.4s25.5-56.9,56.9-56.9S546.6,213.9,546.6,245.4z"
		/>
	<path class="st237" d="M540.2,245.4c0,27.9-22.6,28.7-50.5,28.7s-50.5-0.8-50.5-28.7s22.6-50.5,50.5-50.5
		C517.6,194.8,540.2,217.5,540.2,245.4z"/>
	<path class="st238" d="M533.8,245.4c0,24.4-19.8,26-44.2,26s-44.2-1.6-44.2-26s19.8-44.2,44.2-44.2S533.8,221,533.8,245.4z"/>
	<path class="st239" d="M527.5,245.4c0,20.9-16.9,23.3-37.8,23.3s-37.8-2.4-37.8-23.3s16.9-37.8,37.8-37.8
		C510.6,207.6,527.5,224.5,527.5,245.4z"/>
	<path class="st240" d="M521.1,245.4c0,17.4-14.1,20.5-31.4,20.5s-31.4-3.2-31.4-20.5c0-17.4,14.1-31.4,31.4-31.4
		S521.1,228,521.1,245.4z"/>
	<path class="st241" d="M514.8,245.4c0,13.8-11.2,17.8-25.1,17.8c-13.8,0-25.1-4-25.1-17.8s11.2-25.1,25.1-25.1
		C503.5,220.3,514.8,231.5,514.8,245.4z"/>
	<path class="st242" d="M508.4,245.4c0,10.3-8.4,15.1-18.7,15.1s-18.7-4.7-18.7-15.1c0-10.3,8.4-18.7,18.7-18.7
		S508.4,235,508.4,245.4z"/>
	<circle class="st243" cx="489.7" cy="245.4" r="12.4"/>
</g>
<radialGradient id="SVGID_1_" cx="639.1" cy="793.1" r="243.6" gradientTransform="matrix(1 0 0 1 0 -628)" gradientUnits="userSpaceOnUse">
	<stop  offset="0" style="stop-color:#D6002B"/>
	<stop  offset="0.1205" style="stop-color:#C40027"/>
	<stop  offset="0.3633" style="stop-color:#94001E"/>
	<stop  offset="0.7025" style="stop-color:#48000E"/>
	<stop  offset="1" style="stop-color:#000000"/>
</radialGradient>
<circle class="st244" cx="639.1" cy="165.1" r="243.6"/>
<rect class="st245" width="1100" height="450"/>
</svg>
